<?xml version="1.0" encoding="UTF-8"?>
<svg width="200" height="200" viewBox="0 0 200 200" xmlns="http://www.w3.org/2000/svg">
  <!-- Background circle -->
  <circle cx="100" cy="100" r="95" fill="#2c3e50" stroke="#34495e" stroke-width="5"/>
  
  <!-- Coffee cup -->
  <rect x="60" y="80" width="60" height="70" rx="5" fill="#8b4513" stroke="#654321" stroke-width="2"/>
  <rect x="65" y="85" width="50" height="60" rx="3" fill="#d2691e"/>
  
  <!-- Coffee -->
  <rect x="70" y="90" width="40" height="30" rx="2" fill="#3e2723"/>
  
  <!-- Steam lines -->
  <path d="M 75 75 Q 75 65 80 70 Q 80 60 85 65" stroke="#ffffff" stroke-width="2" fill="none" opacity="0.8"/>
  <path d="M 90 75 Q 90 65 95 70 Q 95 60 100 65" stroke="#ffffff" stroke-width="2" fill="none" opacity="0.8"/>
  <path d="M 105 75 Q 105 65 110 70 Q 110 60 115 65" stroke="#ffffff" stroke-width="2" fill="none" opacity="0.8"/>
  
  <!-- Handle -->
  <path d="M 120 100 Q 140 100 140 120 Q 140 140 120 140" stroke="#8b4513" stroke-width="4" fill="none"/>
  
  <!-- Text -->
  <text x="100" y="180" font-family="Arial, sans-serif" font-size="16" font-weight="bold" text-anchor="middle" fill="#ffffff">CAFÉ SAKURA</text>
</svg>
